<svg width="173" height="81" viewBox="0 0 173 81" fill="none" xmlns="http://www.w3.org/2000/svg">
<path d="M40.3069 6.10046C40.8139 5.59629 42.5377 4.4367 43.2475 4.08378C43.4503 1.71418 42.2335 0 40.6618 0C38.5324 0 35.3382 3.22669 34.02 4.68878C32.6511 4.53753 31.2822 4.4367 29.8119 4.4367C19.3676 4.4367 12.523 8.36923 12.523 14.1672C12.523 18.251 17.2382 21.2256 21.1421 19.461C19.9253 18.7551 19.2155 17.293 19.3169 15.7301C19.5197 11.4951 25.0967 7.76422 31.8399 7.4113C23.525 19.2089 19.6211 38.1153 13.0807 38.1153C10.1908 38.1153 8.36558 36.3003 8.36558 33.4769C8.36558 29.5948 11.7625 26.8723 15.7172 26.8723C12.4723 22.4356 0 25.8639 0 37.6111C0 43.4091 4.46164 47.4928 10.5457 47.4928C25.1982 47.4928 28.2402 20.7214 38.2282 8.36923C42.1828 9.93216 44.4643 13.5118 44.4643 18.8056C44.4643 28.536 36.8086 39.2749 29.8626 39.2749C27.6825 39.2749 26.1615 38.1657 26.0601 36.6532C21.1421 38.5186 21.2942 47.4928 31.992 47.4928C41.5744 47.4928 51.461 33.8298 51.461 21.8306C51.461 14.1672 47.4557 8.67173 40.3069 6.10046Z" fill="#FF0100"/>
<path d="M78.9736 37.8128L77.5539 36.6532C75.8808 38.6194 74.4105 39.3253 73.7514 39.3253C68.9856 39.3253 76.2357 30.8048 76.0329 26.2169C75.9822 24.8052 74.4105 23.8473 71.622 23.5448L69.0363 28.1327C68.5293 25.4102 66.8054 23.2927 63.9662 23.2927C57.9328 23.2927 49.5673 34.9894 49.5673 41.7957C49.5673 45.577 52.153 47.2408 54.2824 47.2408C56.9188 47.2408 59.3525 45.1737 62.3945 40.8882C61.8875 43.762 62.5466 47.2408 66.7547 47.2408C71.4192 47.2408 75.6273 42.8545 78.9736 37.8128ZM60.4679 39.3253C56.5639 39.3253 61.9382 28.7377 66.2984 28.7377C67.2617 28.7377 67.8194 29.2419 67.9715 30.0486L63.7127 37.5103C63.0029 38.4682 61.6847 39.3253 60.4679 39.3253Z" fill="#FF0100"/>
<path d="M100.133 37.7119L98.6628 36.6532C97.5474 38.5186 95.1137 37.4599 94.556 36.6532C96.2798 33.3257 99.6768 22.7885 95.9249 22.8893C91.7168 23.0406 88.472 29.3931 88.2185 35.4936C88.1678 36.1994 88.3199 36.754 88.472 37.2582C87.6101 38.4682 86.6468 39.2244 85.6834 39.3757C82.3879 39.7286 87.9143 30.5023 87.3059 25.9648C87.1031 24.5027 85.5313 23.696 82.7935 23.5952L76.4053 39.4765C74.5293 44.1653 76.963 48.0978 82.3372 47.6945C86.951 47.3416 90.6014 43.9132 92.4266 40.737C95.9756 41.5436 99.1191 39.779 100.133 37.7119Z" fill="#FF0100"/>
<path d="M108.094 19.9651C108.55 20.1164 109.006 20.2172 109.513 20.1668C110.933 20.0156 112.15 18.9064 112.809 17.1418C113.722 14.7722 112.91 12.7555 110.882 12.1001C110.375 11.9488 109.919 11.8984 109.463 11.9488C108.043 12.1001 106.826 13.1084 106.167 14.9234C105.255 17.3435 106.015 19.3097 108.094 19.9651ZM97.4468 39.4765C96.382 42.5016 96.6355 48.2491 101.959 47.6441C106.573 47.1399 110.527 43.0057 113.215 37.6615L111.694 36.6532C109.615 39.5774 107.739 39.2244 107.131 38.9724C104.494 37.8128 109.564 29.8973 108.905 25.7631C108.702 24.3514 107.08 23.5448 104.291 23.5448L97.4468 39.4765Z" fill="#FF0100"/>
<path d="M134.804 39.3253C128.973 39.3253 141.395 19.0576 141.141 14.4697C141.141 13.058 139.874 12.0497 137.085 11.7976L129.379 27.7798C128.77 25.2085 127.097 23.2927 124.41 23.2927C118.377 23.2927 110.518 34.7878 110.518 42.552C110.518 45.577 111.684 47.2408 113.814 47.2408C116.501 47.2408 120.405 44.7199 123.447 40.6865C122.889 43.6107 123.447 47.2408 127.756 47.2408C132.421 47.2408 136.832 42.8545 140.076 37.8128L138.707 36.6532C136.984 38.6194 135.463 39.3253 134.804 39.3253ZM121.419 39.3253C117.515 39.3253 122.382 28.7377 126.742 28.7377C127.604 28.7377 128.162 29.1915 128.365 29.8973L124.765 37.4094C124.004 38.4178 122.889 39.0228 122.078 39.2749C121.824 39.3253 121.621 39.3253 121.419 39.3253Z" fill="#FF0100"/>
<path d="M149.874 13.8647C146.984 12.8563 144.956 15.0747 144.5 17.4443C143.942 20.671 145.92 24.301 142.117 27.5277C147.187 28.4352 151.395 24.8556 152.612 20.6206C153.575 17.3435 152.359 14.7722 149.874 13.8647Z" fill="#FF0100"/>
<path d="M173 37.8128L171.631 36.6532C170.364 38.3169 168.386 39.8295 166.206 41.0395C166.916 39.7286 167.322 38.2161 167.372 36.6532C167.575 31.7627 165.344 28.4856 166.916 27.2252C167.423 27.0739 167.626 26.5698 167.626 25.6623C167.626 23.696 165.648 22.5868 163.57 22.5868C161.44 22.5868 159.209 24.301 159.412 26.8723C159.564 29.0402 162.099 31.2081 161.744 34.5861C161.44 37.359 158.702 39.4261 155.813 39.174C154.342 39.0732 153.075 38.3169 152.517 37.0565C151.909 35.4936 153.024 32.2669 155.66 33.124C157.08 33.6282 156.877 35.4936 155.965 36.6532C157.587 36.8549 159.869 36.0986 160.376 33.8298C160.73 32.0652 159.615 30.2502 156.573 30.2502C151.706 30.2502 148.106 36.0482 148.106 40.3336C148.106 44.0645 151.047 46.6862 154.646 47.1399C155.508 47.2912 156.37 47.2912 157.232 47.1399C162.657 46.4341 169.654 42.0982 173 37.8128Z" fill="#FF0100"/>
<path d="M17.1766 75.3062C19.6119 75.3062 21.0433 73.8828 21.0433 71.609C21.0433 69.3352 19.6119 67.9117 17.1766 67.9117H12.6405V80.8521H14.2765V75.3062H17.1766ZM14.2765 73.7534V69.4646H17.2695C18.608 69.4646 19.3516 70.2225 19.3516 71.609C19.3516 72.9955 18.608 73.7534 17.2695 73.7534H14.2765Z" fill="#FF0100"/>
<path d="M26.512 80.8521H28.148V67.9117H26.512V80.8521Z" fill="#FF0100"/>
<path d="M40.0127 69.4646L33.9523 80.0757V80.8521H42.5224V79.2993H36.2761L42.3365 68.6882V67.9117H34.1754V69.4646H40.0127Z" fill="#FF0100"/>
<path d="M53.4848 69.4646L47.4244 80.0757V80.8521H55.9944V79.2993H49.7481L55.8085 68.6882V67.9117H47.6475V69.4646H53.4848Z" fill="#FF0100"/>
<path d="M60.3374 80.8521H61.9734L63.126 77.3952H68.1081L69.2607 80.8521H70.8967L66.3978 67.9117H64.8363L60.3374 80.8521ZM67.5876 75.8423H63.6465L65.6171 70.0192L67.5876 75.8423Z" fill="#FF0100"/>
<path d="M88.7502 75.3062C91.1855 75.3062 92.617 73.8828 92.617 71.609C92.617 69.3352 91.1855 67.9117 88.7502 67.9117H84.2142V80.8521H85.8501V75.3062H88.7502ZM85.8501 73.7534V69.4646H88.8432C90.1817 69.4646 90.9253 70.2225 90.9253 71.609C90.9253 72.9955 90.1817 73.7534 88.8432 73.7534H85.8501Z" fill="#FF0100"/>
<path d="M95.507 80.8521H97.1429L98.2955 77.3952H103.278L104.43 80.8521H106.066L101.567 67.9117H100.006L95.507 80.8521ZM102.757 75.8423H98.8161L100.787 70.0192L102.757 75.8423Z" fill="#FF0100"/>
<path d="M111.049 80.8521H118.597V79.2993H112.685V67.9117H111.049V80.8521Z" fill="#FF0100"/>
<path d="M123.087 80.8521H124.722L125.875 77.3952H130.857L132.01 80.8521H133.646L129.147 67.9117H127.585L123.087 80.8521ZM130.337 75.8423H126.396L128.366 70.0192L130.337 75.8423Z" fill="#FF0100"/>
<path d="M147.2 76.6188C146.586 78.5044 145.415 79.4472 143.686 79.4472C142.441 79.4472 141.437 79.0035 140.656 78.1346C139.894 77.2658 139.504 76.0087 139.504 74.3819C139.504 72.7551 139.894 71.4981 140.656 70.6292C141.437 69.7604 142.441 69.3167 143.686 69.3167C145.415 69.3167 146.586 70.2595 147.2 72.1451L148.78 71.6829C148.483 70.5183 147.888 69.5755 146.995 68.8545C146.103 68.1336 145.006 67.7639 143.686 67.7639C142.069 67.7639 140.675 68.3369 139.522 69.5016C138.388 70.6662 137.812 72.293 137.812 74.3819C137.812 76.4709 138.388 78.0977 139.522 79.2623C140.675 80.4269 142.069 81 143.686 81C145.006 81 146.103 80.6488 146.995 79.9278C147.888 79.2068 148.483 78.2456 148.78 77.0809L147.2 76.6188Z" fill="#FF0100"/>
<path d="M154.407 80.8521H162.066V79.2993H156.043V74.7332H160.765V73.1803H156.043V69.4646H161.88V67.9117H154.407V80.8521Z" fill="#FF0100"/>
</svg>
