<svg width="103" height="30" viewBox="0 0 103 30" fill="none" xmlns="http://www.w3.org/2000/svg">
<path d="M23.85 4.52001C24.15 4.22001 25.17 3.53001 25.59 3.32001C25.71 1.91001 24.99 0.890015 24.06 0.890015C22.8 0.890015 20.91 2.81002 20.13 3.68001C19.32 3.59001 18.51 3.53001 17.64 3.53001C11.46 3.53001 7.41 5.87001 7.41 9.32001C7.41 11.75 10.2 13.52 12.51 12.47C11.79 12.05 11.37 11.18 11.43 10.25C11.55 7.73001 14.85 5.51001 18.84 5.30001C13.92 12.32 11.61 23.57 7.74 23.57C6.03 23.57 4.95 22.49 4.95 20.81C4.95 18.5 6.96 16.88 9.3 16.88C7.38 14.24 0 16.28 0 23.27C0 26.72 2.64 29.15 6.24 29.15C14.91 29.15 16.71 13.22 22.62 5.87001C24.96 6.80002 26.31 8.93001 26.31 12.08C26.31 17.87 21.78 24.26 17.67 24.26C16.38 24.26 15.48 23.6 15.42 22.7C12.51 23.81 12.6 29.15 18.93 29.15C24.6 29.15 30.45 21.02 30.45 13.88C30.45 9.32002 28.08 6.05001 23.85 4.52001Z" fill="#FF0100"/>
<path d="M46.7295 23.39L45.8895 22.7C44.8995 23.87 44.0295 24.29 43.6395 24.29C40.8195 24.29 45.1095 19.22 44.9895 16.49C44.9595 15.65 44.0295 15.08 42.3795 14.9L40.8495 17.63C40.5495 16.01 39.5295 14.75 37.8495 14.75C34.2795 14.75 29.3295 21.71 29.3295 25.76C29.3295 28.01 30.8595 29 32.1195 29C33.6795 29 35.1195 27.77 36.9195 25.22C36.6195 26.93 37.0095 29 39.4995 29C42.2595 29 44.7495 26.39 46.7295 23.39ZM35.7795 24.29C33.4695 24.29 36.6495 17.99 39.2295 17.99C39.7995 17.99 40.1295 18.29 40.2195 18.77L37.6995 23.21C37.2795 23.78 36.4995 24.29 35.7795 24.29Z" fill="#FF0100"/>
<path d="M59.2498 23.33L58.3798 22.7C57.7198 23.81 56.2798 23.18 55.9498 22.7C56.9698 20.72 58.9798 14.45 56.7598 14.51C54.2698 14.6 52.3498 18.38 52.1998 22.01C52.1698 22.43 52.2598 22.76 52.3498 23.06C51.8398 23.78 51.2698 24.23 50.6998 24.32C48.7498 24.53 52.0198 19.04 51.6598 16.34C51.5398 15.47 50.6098 14.99 48.9898 14.93L45.2098 24.38C44.0998 27.17 45.5398 29.51 48.7198 29.27C51.4498 29.06 53.6098 27.02 54.6898 25.13C56.7898 25.61 58.6498 24.56 59.2498 23.33Z" fill="#FF0100"/>
<path d="M63.9602 12.77C64.2302 12.86 64.5002 12.92 64.8002 12.89C65.6402 12.8 66.3602 12.14 66.7502 11.09C67.2902 9.68001 66.8102 8.48002 65.6102 8.09001C65.3102 8.00001 65.0402 7.97001 64.7702 8.00001C63.9302 8.09001 63.2102 8.69001 62.8202 9.77001C62.2802 11.21 62.7302 12.38 63.9602 12.77ZM57.6602 24.38C57.0302 26.18 57.1802 29.6 60.3302 29.24C63.0602 28.94 65.4002 26.48 66.9902 23.3L66.0902 22.7C64.8602 24.44 63.7502 24.23 63.3902 24.08C61.8302 23.39 64.8302 18.68 64.4402 16.22C64.3202 15.38 63.3602 14.9 61.7102 14.9L57.6602 24.38Z" fill="#FF0100"/>
<path d="M79.7646 24.29C76.3146 24.29 83.6646 12.23 83.5146 9.50002C83.5146 8.66002 82.7646 8.06002 81.1146 7.91002L76.5546 17.42C76.1946 15.89 75.2046 14.75 73.6146 14.75C70.0446 14.75 65.3946 21.59 65.3946 26.21C65.3946 28.01 66.0846 29 67.3446 29C68.9346 29 71.2446 27.5 73.0446 25.1C72.7146 26.84 73.0446 29 75.5946 29C78.3546 29 80.9646 26.39 82.8846 23.39L82.0746 22.7C81.0546 23.87 80.1546 24.29 79.7646 24.29ZM71.8446 24.29C69.5346 24.29 72.4146 17.99 74.9946 17.99C75.5046 17.99 75.8346 18.26 75.9546 18.68L73.8246 23.15C73.3746 23.75 72.7146 24.11 72.2346 24.26C72.0846 24.29 71.9646 24.29 71.8446 24.29Z" fill="#FF0100"/>
<path d="M88.6821 9.14001C86.9721 8.54002 85.7721 9.86002 85.5021 11.27C85.1721 13.19 86.3421 15.35 84.0921 17.27C87.0921 17.81 89.5821 15.68 90.3021 13.16C90.8721 11.21 90.1521 9.68001 88.6821 9.14001Z" fill="#FF0100"/>
<path d="M102.366 23.39L101.556 22.7C100.806 23.69 99.6359 24.59 98.3459 25.31C98.7659 24.53 99.0059 23.63 99.0359 22.7C99.1559 19.79 97.8359 17.84 98.7659 17.09C99.0659 17 99.1859 16.7 99.1859 16.16C99.1859 14.99 98.0159 14.33 96.7859 14.33C95.5259 14.33 94.2059 15.35 94.3259 16.88C94.4159 18.17 95.9159 19.46 95.7059 21.47C95.5259 23.12 93.9059 24.35 92.1959 24.2C91.3259 24.14 90.5759 23.69 90.2459 22.94C89.8859 22.01 90.5459 20.09 92.1059 20.6C92.9459 20.9 92.8259 22.01 92.2859 22.7C93.2459 22.82 94.5959 22.37 94.8959 21.02C95.1059 19.97 94.4459 18.89 92.6459 18.89C89.7659 18.89 87.6359 22.34 87.6359 24.89C87.6359 27.11 89.3759 28.67 91.5059 28.94C92.0159 29.03 92.5259 29.03 93.0359 28.94C96.2459 28.52 100.386 25.94 102.366 23.39Z" fill="#FF0100"/>
</svg>
